<?xml version="1.0" encoding="UTF-8" standalone="no"?><!DOCTYPE svg PUBLIC "-//W3C//DTD SVG 1.1//EN" "http://www.w3.org/Graphics/SVG/1.1/DTD/svg11.dtd"><svg width="100%" height="100%" viewBox="0 0 2815 2815" version="1.1" xmlns="http://www.w3.org/2000/svg" xmlns:xlink="http://www.w3.org/1999/xlink" xml:space="preserve" xmlns:serif="http://www.serif.com/" style="fill-rule:evenodd;clip-rule:evenodd;stroke-linejoin:round;stroke-miterlimit:2;"><path d="M1407.27,0c776.694,0 1407.27,630.577 1407.27,1407.27c0,776.694 -630.576,1407.27 -1407.27,1407.27c-776.694,0 -1407.27,-630.576 -1407.27,-1407.27c0,-776.694 630.577,-1407.27 1407.27,-1407.27Zm-0,391.98c560.354,-0 1015.29,454.936 1015.29,1015.29c0,560.354 -454.936,1015.29 -1015.29,1015.29c-560.355,0 -1015.29,-454.936 -1015.29,-1015.29c-0,-560.355 454.936,-1015.29 1015.29,-1015.29Zm-0,360.316c361.49,-0 654.975,293.484 654.975,654.975c-0,361.49 -293.485,654.975 -654.975,654.975c-361.491,-0 -654.975,-293.485 -654.975,-654.975c-0,-361.491 293.484,-654.975 654.975,-654.975Zm-351.205,810.974c-37.889,-0 -62.446,19.412 -62.446,47.244c-0,34.848 30.404,43.735 60.341,49.582c29.937,5.848 38.357,12.162 38.357,22.453c-0,15.436 -18.477,21.751 -36.252,21.751c-16.372,0 -35.55,-9.121 -35.55,-28.3l-30.872,0c-0,39.059 34.614,56.6 66.422,56.6c40.929,-0 67.124,-19.646 67.124,-50.986c0,-33.212 -24.324,-42.801 -62.914,-50.519c-24.791,-5.145 -35.784,-9.121 -35.784,-20.347c0,-12.396 15.202,-18.711 31.574,-18.711c19.646,0 31.34,10.525 31.34,24.558l30.873,-0c-0,-25.727 -19.413,-53.325 -62.213,-53.325Zm617.681,118.344c4.444,-47.712 -25.025,-75.31 -60.575,-75.31c-33.913,-0 -61.745,28.533 -61.745,63.382c-0,34.848 27.832,62.914 61.745,62.914c29.936,-0 51.22,-16.606 58.236,-41.163l-32.977,-0c-5.146,9.589 -15.203,14.032 -25.493,14.032c-14.501,0 -26.195,-9.121 -30.171,-23.855l90.98,-0Zm123.255,10.29c0,-26.194 -21.517,-32.743 -51.454,-37.655c-14.968,-2.338 -23.855,-4.443 -23.855,-10.758c-0,-4.444 5.847,-9.589 20.113,-9.589c11.461,-0 18.243,4.444 20.114,10.057l32.042,-0c-3.976,-22.687 -24.558,-37.655 -52.156,-37.655c-34.848,-0 -51.454,19.646 -51.454,38.59c0,26.897 28.768,32.744 50.285,36.018c21.049,3.274 25.259,6.081 25.259,12.863c0,7.017 -9.355,10.759 -21.751,10.759c-9.121,-0 -21.517,-3.742 -25.727,-14.033l-31.34,0c3.742,25.961 26.429,42.099 57.067,42.099c30.872,-0 52.857,-16.84 52.857,-40.696Zm-472.44,-82.56l-30.872,0l-0,70.399c-0,13.331 -9.59,23.622 -23.389,23.622c-20.113,-0 -22.452,-16.84 -22.452,-23.622l-0,-70.399l-30.872,0l-0,70.399c-0,31.574 18.944,52.857 47.477,52.857c12.63,-0 23.155,-5.146 30.639,-13.799l-0,10.992l29.469,0l-0,-120.449Zm144.773,-53.559l-30.873,0l0,65.019c-9.355,-8.887 -21.517,-14.032 -35.55,-14.032c-31.34,-0 -57.301,27.13 -57.301,62.914c0,35.55 25.961,62.68 57.301,62.68c14.735,-0 27.364,-5.613 36.953,-15.436l0,12.863l29.47,0l-0,-174.008Zm-268.964,145.708c-15.436,0.936 -23.154,-5.379 -23.154,-22.218l-0,-42.567l21.751,0l-0,-27.364l-21.751,0l-0,-30.638l-30.873,-0l0,30.638l-14.5,0l-0,27.364l14.5,0l0,42.333c0,32.977 18.711,54.26 54.027,50.518l-0,-28.066Zm329.305,-92.149l-30.872,0l-0,120.449l30.872,0l-0,-120.449Zm-91.214,60.576c0,18.71 -13.799,33.912 -30.872,33.912c-17.074,0 -30.873,-14.734 -30.873,-33.912c0,-19.647 13.799,-34.615 30.873,-34.615c17.073,0 30.872,15.436 30.872,34.615Zm144.773,-13.566c4.444,-14.032 15.67,-22.92 29.703,-22.92c14.734,0 26.428,8.888 30.17,22.92l-59.873,0Zm-53.559,-88.875l-30.872,0l-0,28.768l30.872,-0l-0,-28.768Zm370.468,-199.033l-32.977,0l-28.768,87.004l-29.469,-87.004l-32.743,0l46.542,122.554l-3.508,9.122c-5.145,13.799 -12.396,17.541 -27.832,16.605l0,28.066c25.259,1.637 43.736,-2.573 55.43,-33.913l53.325,-142.434Zm-444.842,-3.04c-33.445,-0 -60.576,27.364 -60.576,63.382c0,36.018 27.131,62.914 60.576,62.914c33.445,-0 60.809,-26.896 60.809,-62.914c-0,-36.018 -27.364,-63.382 -60.809,-63.382Zm315.74,82.794l-32.978,-0c-3.976,8.42 -13.799,15.436 -25.259,15.436c-17.073,0 -30.872,-15.67 -30.872,-34.614c-0,-19.412 13.799,-35.316 30.872,-35.316c11.226,-0 20.815,7.016 25.025,15.202l32.978,-0c-7.017,-27.13 -29.002,-43.502 -58.003,-43.502c-36.252,-0 -62.212,28.533 -62.212,63.382c-0,34.848 25.96,62.914 62.212,62.914c29.235,-0 51.22,-16.138 58.237,-43.502Zm-746.316,-82.794c-33.445,-0 -60.575,27.364 -60.575,63.382c-0,36.018 27.13,62.914 60.575,62.914c33.445,-0 60.809,-26.896 60.809,-62.914c0,-36.018 -27.364,-63.382 -60.809,-63.382Zm-92.617,3.508c-0,-16.605 8.186,-22.686 22.92,-21.517l0,-29.001c-34.38,-3.976 -53.325,19.178 -53.792,50.518l-14.501,0l0,27.364l14.501,0l-0,92.617l30.872,0l-0,-92.617l21.751,0l-0,-27.364l-21.751,0Zm696.733,-0.468l-30.873,0l0,120.449l30.873,0l-0,-120.449Zm-60.108,-53.558l-30.872,-0l-0,174.007l30.872,0l0,-174.007Zm-393.856,51.22c-14.501,-2.339 -29.001,2.105 -38.824,14.266l-0,-11.928l-29.469,0l-0,120.449l30.872,0l-0,-59.172c-0,-9.589 1.169,-19.412 7.718,-26.194c7.016,-7.485 17.307,-8.888 29.703,-7.485l-0,-29.936Zm211.663,12.863c-0,-31.808 -19.647,-52.389 -53.559,-52.389l-68.294,-0l0,162.313l30.873,0l-0,-58.002l38.122,-0c32.042,-0 52.858,-21.751 52.858,-51.922Zm-361.815,84.431c-16.372,0 -29.703,-14.033 -29.703,-34.38c0,-20.816 13.331,-35.316 29.703,-35.316c16.372,-0 29.703,14.5 29.703,35.316c-0,20.347 -13.331,34.38 -29.703,34.38Zm430.576,0c-16.372,0 -29.703,-14.033 -29.703,-34.38c-0,-20.816 13.331,-35.316 29.703,-35.316c16.371,-0 29.703,14.5 29.703,35.316c-0,20.347 -13.332,34.38 -29.703,34.38Zm-122.554,-108.053c14.267,0 22.92,7.25 22.92,23.622c0,16.372 -8.653,23.622 -22.92,23.622l-37.187,0l-0,-47.244l37.187,0Zm296.094,-28.767l-30.873,-0l0,28.767l30.873,0l-0,-28.767Zm-442.27,-130.038l-33.211,-0c-7.251,14.734 -21.985,26.194 -40.462,26.194c-26.662,0 -47.712,-25.727 -47.712,-56.599c0,-30.638 21.05,-56.365 47.712,-56.365c18.711,-0 33.211,10.992 40.462,25.727l33.445,-0c-10.057,-33.212 -37.187,-54.027 -73.907,-54.027c-44.203,-0 -78.584,37.187 -78.584,84.665c0,47.478 34.381,84.665 78.584,84.665c36.018,0 63.382,-21.283 73.673,-54.26Zm564.59,3.274c4.443,-47.712 -25.026,-75.31 -60.576,-75.31c-33.912,0 -61.744,28.534 -61.744,63.382c-0,34.848 27.832,62.914 61.744,62.914c29.937,0 51.22,-16.606 58.237,-41.163l-32.978,-0c-5.145,9.589 -15.202,14.033 -25.493,14.033c-14.5,-0 -26.194,-9.122 -30.17,-23.856l90.98,-0Zm-428.471,-0c4.444,-47.712 -25.025,-75.31 -60.575,-75.31c-33.913,0 -61.745,28.534 -61.745,63.382c-0,34.848 27.832,62.914 61.745,62.914c29.936,0 51.22,-16.606 58.236,-41.163l-32.977,-0c-5.146,9.589 -15.202,14.033 -25.493,14.033c-14.501,-0 -26.195,-9.122 -30.171,-23.856l90.98,-0Zm211.663,19.88c-15.437,0.935 -23.155,-5.379 -23.155,-22.219l0,-42.566l21.751,-0l0,-27.364l-21.751,-0l0,-30.639l-30.872,0l-0,30.639l-14.501,-0l0,27.364l14.501,-0l-0,42.332c-0,32.978 18.71,54.261 54.027,50.519l-0,-28.066Zm85.834,-94.488c-14.501,-2.339 -29.001,2.105 -38.824,14.267l-0,-11.928l-29.469,-0l-0,120.448l30.872,0l-0,-59.171c-0,-9.59 1.169,-19.413 7.718,-26.195c7.017,-7.484 17.307,-8.888 29.703,-7.484l0,-29.937Zm-168.395,52.389c0,-31.808 -18.71,-53.091 -47.01,-53.091c-12.863,0 -23.388,5.613 -31.106,14.735l0,-11.694l-29.469,-0l-0,120.448l30.872,0l0,-70.398c0,-13.565 9.589,-23.856 23.388,-23.856c20.348,0 22.453,16.84 22.453,23.856l0,70.398l30.872,0l0,-70.398Zm-219.614,-3.04c4.444,-14.033 15.67,-22.921 29.703,-22.921c14.734,0 26.428,8.888 30.17,22.921l-59.873,-0Zm428.47,-0c4.444,-14.033 15.671,-22.921 29.703,-22.921c14.735,0 26.429,8.888 30.171,22.921l-59.874,-0Z"/></svg>